#!OML:ASF E:/inclinewalkrobotboard/Project1/Captureday1/Session1/subject1.ASF
:FULLY-SPECIFIED
:DEGREES
326
root 0 0 0 -0.38228333839507356 -2.0373775017688946 -3.89189940603041
lowerback 16.567620293656674 1.0869671912715881 -0.13007551268753115
upperback 0.6301822040051416 1.421855098381416 0.320116185751832
thorax -8.68332086411154 0.6724481251653796 0.04874177931237633
lowerneck -7.478585601875044 -3.250743416842898 1.3535096976769
upperneck -6.327719005374551 -4.209384322519408 1.6901611630043607
head -0.842391725135446 -2.1888880091491925 0.22279976260379894
rclavicle -3.807392337600754E-16 1.9597792571144472E-17
rhumerus 12.123025494737334 0.5655483248763638 -39.39942300370616
rradius 118.91584741621182
rwrist -30.86217315401586
rhand -11.650906498294624 -36.738272282012645
rfingers 7.125019999999965
rthumb 14.430853471302434 -66.14853691650478
lclavicle -3.8319834646913017E-16 -4.459316150414381E-16
lhumerus -43.55538565267065 -0.37852738154717647 83.18488094918521
lradius 45.56099453054744
lwrist 1.827668429667701
lhand -15.34623694546909 -12.95759710634693
lfingers 7.12501999999994
lthumb 10.783661433987334 16.210428675147853
rfemur -2.6919186196858345 1.0006903561409166 5.380918450200914
rtibia 8.061497418535069
rfoot -1.5159679488941697 -1.3119497087639695
rtoes 0.7705681127749153
lfemur -6.472438348998028 -3.5998171744328746 -12.14598508657923
ltibia 27.322146906596927
lfoot -19.43209264832898 8.113708134226023
ltoes -43.782943711684744
327
root 0 0 0 -0.3822401029463641 -2.0374374640426387 -3.8919886937230572
lowerback 16.568164167151203 1.08685256328377 -0.13016145505011367
upperback 0.6297493819927172 1.4216860891405803 0.32004297175796814
thorax -8.684059069689809 0.6723590015170708 0.04870634510030647
lowerneck -7.478736524141958 -3.250641186237922 1.3539482585761493
upperneck -6.331541332785143 -4.209171167494518 1.6897404056603411
head -0.8436393680506633 -2.1888404579453296 0.22265283814882325
rclavicle -3.8074578626086113E-16 1.9618473539795873E-17
rhumerus 12.123293314341119 0.5661037871006123 -39.39903705265826
rradius 118.91712175802144
rwrist -30.862732572574245
rhand -11.650671338614568 -36.73967334022893
rfingers 7.125019999999965
rthumb 14.431075451956278 -66.14989409407582
lclavicle -3.8300590459177916E-16 -4.457932470111564E-16
lhumerus -43.557075012568184 -0.37844060208109087 83.18514744529836
lradius 45.56328001406633
lwrist 1.8267470897435594
lhand -15.344346427615548 -12.963563282366005
lfingers 7.12501999999994
lthumb 10.785459981088156 16.204694781044267
rfemur -2.691252427991432 1.000433587323993 5.379567569089211
rtibia 8.059516811523721
rfoot -1.5155776814320672 -1.3116129643014727
rtoes 0.7703698978553917
lfemur -6.472162544903378 -3.6000096282626735 -12.145405252023242
ltibia 27.321597621868683
lfoot -19.433164722929355 8.114637783546002
ltoes -43.78604083656657
328
root 0 0 0 -0.3821968772697537 -2.037497356719495 -3.8920781677587875
lowerback 16.56870680125322 1.0867383619506046 -0.13024703469889254
upperback 0.6293166410078275 1.4215177063503732 0.31996972226023
thorax -8.684796483222389 0.6722701822472674 0.048670624865144285
lowerneck -7.478887676031143 -3.2505392923680736 1.3543860706812438
upperneck -6.335358438621505 -4.208958720298293 1.6893206802087197
head -0.8448852475306463 -2.1887931113206376 0.22250625175118693
rclavicle -3.807522114137138E-16 1.9639167399737467E-17
rhumerus 12.123558961075958 0.5666606176835707 -39.3986524309867
rradius 118.9183953431606
rwrist -30.863291823141648
rhand -11.650435432287498 -36.7410770721986
rfingers 7.125019999999965
rthumb 14.431298138628158 -66.15125384721065
lclavicle -3.8281332458921853E-16 -4.45654736833145E-16
lhumerus -43.55876590507253 -0.3783537773502498 83.18541416769436
lradius 45.56556758815882
lwrist 1.8258249551936852
lhand -15.342454238524756 -12.969534831909051
lfingers 7.12501999999994
lthumb 10.78726013019659 16.198955745094572
rfemur -2.690585523831457 1.000176527571707 5.378215181909356
rtibia 8.057534042765273
rfoot -1.5151869670979363 -1.3112758532602427
rtoes 0.770171453017473
lfemur -6.471886399865278 -3.6002022968078276 -12.144824817796286
ltibia 27.321047727138073
lfoot -19.434237945131105 8.115568414833408
ltoes -43.789141228533246
329
root 0 0 0 -0.3821536565472723 -2.037557186542671 -3.892167838392834
lowerback 16.56924826029065 1.086624574443606 -0.13033226159197975
upperback 0.628883931592584 1.4213499310666722 0.3198964286340983
thorax -8.685533190321022 0.672181657337082 0.048634614267832
lowerneck -7.479039074804063 -3.250437724137037 1.3548231840422638
upperneck -6.339170765708495 -4.208746957278899 1.6889019389027462
head -0.8461295081347124 -2.1887459642285485 0.22235998672205579
rclavicle -3.807585102477233E-16 1.9659876365913526E-17
rhumerus 12.12382246844927 0.5672188749657661 -39.398269093832106
rradius 118.91966831312172
rwrist -30.86385096739254
rhand -11.650198754878764 -36.74248362696896
rfingers 7.125019999999965
rthumb 14.431521554381778 -66.15261632029154
lclavicle -3.8262058459296797E-16 -4.455160689524567E-16
lhumerus -43.56045851941985 -0.3782668971502944 83.18568114637284
lradius 45.56785750792334
lwrist 1.8249019222376743
lhand -15.340560166495864 -12.97551242306655
lfingers 7.12501999999994
lthumb 10.78906208282607 16.193210925098334
rfemur -2.689917832872762 0.9999191482429926 5.376861137982857
rtibia 8.055548891331798
rfoot -1.5147957623704054 -1.310938338071478
rtoes 0.7699727561597589
lfemur -6.471609883058809 -3.6003952016081002 -12.1442437190406
ltibia 27.320497160982708
lfoot -19.43531243483574 8.116500132070307
ltoes -43.79224523394388
